<?xml version="1.0" standalone="no"?>
<!DOCTYPE svg PUBLIC "-//W3C//DTD SVG 20010904//EN"
 "http://www.w3.org/TR/2001/REC-SVG-20010904/DTD/svg10.dtd">
<svg version="1.0" xmlns="http://www.w3.org/2000/svg"
 width="260.000000pt" height="260.000000pt" viewBox="0 0 260.000000 260.000000"
 preserveAspectRatio="xMidYMid meet">
<metadata>
Created by potrace 1.14, written by Peter Selinger 2001-2017
</metadata>
<g transform="translate(0.000000,260.000000) scale(0.100000,-0.100000)"
fill="#000000" stroke="none">
<path d="M62 1633 l4 -908 22 -75 c84 -279 264 -463 542 -556 l85 -29 913 -3
912 -3 0 417 0 417 -157 -7 c-475 -21 -802 -138 -1180 -423 -68 -51 -142 -103
-165 -117 -105 -61 -265 -76 -389 -37 -254 80 -409 353 -344 606 23 90 56 149
149 267 228 290 360 588 411 926 9 53 18 172 22 265 l6 167 -417 0 -417 0 3
-907z"/>
<path d="M1782 2525 c-169 -37 -339 -171 -414 -325 -93 -192 -88 -404 15 -589
41 -75 167 -198 244 -239 84 -44 198 -72 297 -72 227 0 440 128 544 327 51 99
72 182 72 293 0 103 -18 180 -67 280 -50 104 -170 223 -274 273 -134 65 -276
82 -417 52z"/>
</g>
</svg>
